<?xml version="1.0" encoding="UTF-8"?>
<svg xmlns="http://www.w3.org/2000/svg" width="1360" height="860" viewBox="0 0 1360 860" role="img" aria-labelledby="title desc">
  <title id="title">Alpha metrics failure count bar charts</title>
  <desc id="desc">Two bar charts showing number of failures over time for hard-knownfail and uber-plus-messy. Date labels use M/D HH:mm format from stored UTC timestamps.</desc>
  <rect width="100%" height="100%" fill="#ffffff" />
  <text x="72" y="38" font-size="24" font-weight="700" fill="#111827">Alpha metrics failures since base</text>
  <text x="72" y="64" font-size="13" fill="#374151">Two separate bar charts. Dates are formatted like 6/30 23:45 using the stored timestamp in 24-hour time.</text>
  <text x="72" y="84" font-size="13" fill="#374151">Base point: 6/30 23:35. Latest point: 7/2 03:45. Y-axis is number of failing cases out of 150.</text>
  <text x="72" y="78.00" font-size="18" font-weight="700" fill="#111827">Hard-knownfail failures</text>
<text x="72" y="98.00" font-size="13" fill="#374151">Base 142/150; latest 134/150</text>
<line x1="72" y1="371.00" x2="1316" y2="371.00" stroke="#e5e7eb" />
<text x="60" y="375.00" text-anchor="end" font-size="12" fill="#374151">0</text>
<line x1="72" y1="316.00" x2="1316" y2="316.00" stroke="#e5e7eb" />
<text x="60" y="320.00" text-anchor="end" font-size="12" fill="#374151">30</text>
<line x1="72" y1="261.00" x2="1316" y2="261.00" stroke="#e5e7eb" />
<text x="60" y="265.00" text-anchor="end" font-size="12" fill="#374151">60</text>
<line x1="72" y1="206.00" x2="1316" y2="206.00" stroke="#e5e7eb" />
<text x="60" y="210.00" text-anchor="end" font-size="12" fill="#374151">90</text>
<line x1="72" y1="151.00" x2="1316" y2="151.00" stroke="#e5e7eb" />
<text x="60" y="155.00" text-anchor="end" font-size="12" fill="#374151">120</text>
<line x1="72" y1="96.00" x2="1316" y2="96.00" stroke="#e5e7eb" />
<text x="60" y="100.00" text-anchor="end" font-size="12" fill="#374151">150</text>
<line x1="72" y1="371.00" x2="1316" y2="371.00" stroke="#111827" />
<line x1="72" y1="96.00" x2="72" y2="371.00" stroke="#111827" />
<rect x="72.00" y="110.67" width="42.08" height="260.33" fill="#b91c1c" rx="2">
<title>hard-knownfail: 142/150 failures at 6/30 23:35; commit b6e8906</title>
</rect>
<text x="93.04" y="110.00" text-anchor="middle" font-size="11" fill="#111827">142</text>
<line x1="93.04" y1="371.00" x2="93.04" y2="377.00" stroke="#6b7280" />
<text x="93.04" y="395.00" text-anchor="end" transform="rotate(-45 93.04 395.00)" font-size="11" fill="#374151">6/30 23:35</text>
<text x="93.04" y="445.00" text-anchor="middle" font-size="11" font-weight="700" fill="#111827">BASE</text>
<rect x="122.08" y="110.67" width="42.08" height="260.33" fill="#b91c1c" rx="2">
<title>hard-knownfail: 142/150 failures at 6/30 23:37; commit b6e8906</title>
</rect>
<text x="143.12" y="110.00" text-anchor="middle" font-size="11" fill="#111827">142</text>
<line x1="143.12" y1="371.00" x2="143.12" y2="377.00" stroke="#6b7280" />
<text x="143.12" y="395.00" text-anchor="end" transform="rotate(-45 143.12 395.00)" font-size="11" fill="#374151">6/30 23:37</text>

<rect x="172.16" y="110.67" width="42.08" height="260.33" fill="#b91c1c" rx="2">
<title>hard-knownfail: 142/150 failures at 6/30 23:54; commit eb2a795</title>
</rect>
<text x="193.20" y="110.00" text-anchor="middle" font-size="11" fill="#111827">142</text>
<line x1="193.20" y1="371.00" x2="193.20" y2="377.00" stroke="#6b7280" />
<text x="193.20" y="395.00" text-anchor="end" transform="rotate(-45 193.20 395.00)" font-size="11" fill="#374151">6/30 23:54</text>

<rect x="222.24" y="110.67" width="42.08" height="260.33" fill="#b91c1c" rx="2">
<title>hard-knownfail: 142/150 failures at 6/30 23:59; commit 0f4220b</title>
</rect>
<text x="243.28" y="110.00" text-anchor="middle" font-size="11" fill="#111827">142</text>
<line x1="243.28" y1="371.00" x2="243.28" y2="377.00" stroke="#6b7280" />
<text x="243.28" y="395.00" text-anchor="end" transform="rotate(-45 243.28 395.00)" font-size="11" fill="#374151">6/30 23:59</text>

<rect x="272.32" y="110.67" width="42.08" height="260.33" fill="#b91c1c" rx="2">
<title>hard-knownfail: 142/150 failures at 7/1 00:13; commit 1d47689</title>
</rect>
<text x="293.36" y="110.00" text-anchor="middle" font-size="11" fill="#111827">142</text>
<line x1="293.36" y1="371.00" x2="293.36" y2="377.00" stroke="#6b7280" />
<text x="293.36" y="395.00" text-anchor="end" transform="rotate(-45 293.36 395.00)" font-size="11" fill="#374151">7/1 00:13</text>

<rect x="322.40" y="110.67" width="42.08" height="260.33" fill="#b91c1c" rx="2">
<title>hard-knownfail: 142/150 failures at 7/1 00:21; commit 1d47689</title>
</rect>
<text x="343.44" y="110.00" text-anchor="middle" font-size="11" fill="#111827">142</text>
<line x1="343.44" y1="371.00" x2="343.44" y2="377.00" stroke="#6b7280" />
<text x="343.44" y="395.00" text-anchor="end" transform="rotate(-45 343.44 395.00)" font-size="11" fill="#374151">7/1 00:21</text>

<rect x="372.48" y="118.00" width="42.08" height="253.00" fill="#b91c1c" rx="2">
<title>hard-knownfail: 138/150 failures at 7/1 00:37; commit 1d47689</title>
</rect>
<text x="393.52" y="111.00" text-anchor="middle" font-size="11" fill="#111827">138</text>
<line x1="393.52" y1="371.00" x2="393.52" y2="377.00" stroke="#6b7280" />
<text x="393.52" y="395.00" text-anchor="end" transform="rotate(-45 393.52 395.00)" font-size="11" fill="#374151">7/1 00:37</text>

<rect x="422.56" y="118.00" width="42.08" height="253.00" fill="#b91c1c" rx="2">
<title>hard-knownfail: 138/150 failures at 7/1 00:39; commit 1d47689</title>
</rect>
<text x="443.60" y="111.00" text-anchor="middle" font-size="11" fill="#111827">138</text>
<line x1="443.60" y1="371.00" x2="443.60" y2="377.00" stroke="#6b7280" />
<text x="443.60" y="395.00" text-anchor="end" transform="rotate(-45 443.60 395.00)" font-size="11" fill="#374151">7/1 00:39</text>

<rect x="472.64" y="118.00" width="42.08" height="253.00" fill="#b91c1c" rx="2">
<title>hard-knownfail: 138/150 failures at 7/1 00:40; commit 1d47689</title>
</rect>
<text x="493.68" y="111.00" text-anchor="middle" font-size="11" fill="#111827">138</text>
<line x1="493.68" y1="371.00" x2="493.68" y2="377.00" stroke="#6b7280" />
<text x="493.68" y="395.00" text-anchor="end" transform="rotate(-45 493.68 395.00)" font-size="11" fill="#374151">7/1 00:40</text>

<rect x="522.72" y="119.83" width="42.08" height="251.17" fill="#b91c1c" rx="2">
<title>hard-knownfail: 137/150 failures at 7/1 03:54; commit 1618d04</title>
</rect>
<text x="543.76" y="112.83" text-anchor="middle" font-size="11" fill="#111827">137</text>
<line x1="543.76" y1="371.00" x2="543.76" y2="377.00" stroke="#6b7280" />
<text x="543.76" y="395.00" text-anchor="end" transform="rotate(-45 543.76 395.00)" font-size="11" fill="#374151">7/1 03:54</text>

<rect x="572.80" y="119.83" width="42.08" height="251.17" fill="#b91c1c" rx="2">
<title>hard-knownfail: 137/150 failures at 7/1 04:09; commit 08cb995</title>
</rect>
<text x="593.84" y="112.83" text-anchor="middle" font-size="11" fill="#111827">137</text>
<line x1="593.84" y1="371.00" x2="593.84" y2="377.00" stroke="#6b7280" />
<text x="593.84" y="395.00" text-anchor="end" transform="rotate(-45 593.84 395.00)" font-size="11" fill="#374151">7/1 04:09</text>

<rect x="622.88" y="119.83" width="42.08" height="251.17" fill="#b91c1c" rx="2">
<title>hard-knownfail: 137/150 failures at 7/1 04:12; commit 1ca9a1a</title>
</rect>
<text x="643.92" y="112.83" text-anchor="middle" font-size="11" fill="#111827">137</text>
<line x1="643.92" y1="371.00" x2="643.92" y2="377.00" stroke="#6b7280" />
<text x="643.92" y="395.00" text-anchor="end" transform="rotate(-45 643.92 395.00)" font-size="11" fill="#374151">7/1 04:12</text>

<rect x="672.96" y="119.83" width="42.08" height="251.17" fill="#b91c1c" rx="2">
<title>hard-knownfail: 137/150 failures at 7/1 04:37; commit c3137d8</title>
</rect>
<text x="694.00" y="112.83" text-anchor="middle" font-size="11" fill="#111827">137</text>
<line x1="694.00" y1="371.00" x2="694.00" y2="377.00" stroke="#6b7280" />
<text x="694.00" y="395.00" text-anchor="end" transform="rotate(-45 694.00 395.00)" font-size="11" fill="#374151">7/1 04:37</text>

<rect x="723.04" y="119.83" width="42.08" height="251.17" fill="#b91c1c" rx="2">
<title>hard-knownfail: 137/150 failures at 7/1 04:49; commit 7a55092</title>
</rect>
<text x="744.08" y="112.83" text-anchor="middle" font-size="11" fill="#111827">137</text>
<line x1="744.08" y1="371.00" x2="744.08" y2="377.00" stroke="#6b7280" />
<text x="744.08" y="395.00" text-anchor="end" transform="rotate(-45 744.08 395.00)" font-size="11" fill="#374151">7/1 04:49</text>

<rect x="773.12" y="119.83" width="42.08" height="251.17" fill="#b91c1c" rx="2">
<title>hard-knownfail: 137/150 failures at 7/1 05:25; commit b5313e4</title>
</rect>
<text x="794.16" y="112.83" text-anchor="middle" font-size="11" fill="#111827">137</text>
<line x1="794.16" y1="371.00" x2="794.16" y2="377.00" stroke="#6b7280" />
<text x="794.16" y="395.00" text-anchor="end" transform="rotate(-45 794.16 395.00)" font-size="11" fill="#374151">7/1 05:25</text>

<rect x="823.20" y="119.83" width="42.08" height="251.17" fill="#b91c1c" rx="2">
<title>hard-knownfail: 137/150 failures at 7/1 05:35; commit 97e76ef</title>
</rect>
<text x="844.24" y="112.83" text-anchor="middle" font-size="11" fill="#111827">137</text>
<line x1="844.24" y1="371.00" x2="844.24" y2="377.00" stroke="#6b7280" />
<text x="844.24" y="395.00" text-anchor="end" transform="rotate(-45 844.24 395.00)" font-size="11" fill="#374151">7/1 05:35</text>

<rect x="873.28" y="119.83" width="42.08" height="251.17" fill="#b91c1c" rx="2">
<title>hard-knownfail: 137/150 failures at 7/1 05:53; commit 97e76ef</title>
</rect>
<text x="894.32" y="112.83" text-anchor="middle" font-size="11" fill="#111827">137</text>
<line x1="894.32" y1="371.00" x2="894.32" y2="377.00" stroke="#6b7280" />
<text x="894.32" y="395.00" text-anchor="end" transform="rotate(-45 894.32 395.00)" font-size="11" fill="#374151">7/1 05:53</text>

<rect x="923.36" y="119.83" width="42.08" height="251.17" fill="#b91c1c" rx="2">
<title>hard-knownfail: 137/150 failures at 7/1 06:14; commit 882fb70</title>
</rect>
<text x="944.40" y="112.83" text-anchor="middle" font-size="11" fill="#111827">137</text>
<line x1="944.40" y1="371.00" x2="944.40" y2="377.00" stroke="#6b7280" />
<text x="944.40" y="395.00" text-anchor="end" transform="rotate(-45 944.40 395.00)" font-size="11" fill="#374151">7/1 06:14</text>

<rect x="973.44" y="119.83" width="42.08" height="251.17" fill="#b91c1c" rx="2">
<title>hard-knownfail: 137/150 failures at 7/1 06:15; commit 882fb70</title>
</rect>
<text x="994.48" y="112.83" text-anchor="middle" font-size="11" fill="#111827">137</text>
<line x1="994.48" y1="371.00" x2="994.48" y2="377.00" stroke="#6b7280" />
<text x="994.48" y="395.00" text-anchor="end" transform="rotate(-45 994.48 395.00)" font-size="11" fill="#374151">7/1 06:15</text>

<rect x="1023.52" y="119.83" width="42.08" height="251.17" fill="#b91c1c" rx="2">
<title>hard-knownfail: 137/150 failures at 7/1 06:31; commit 2b28cd5</title>
</rect>
<text x="1044.56" y="112.83" text-anchor="middle" font-size="11" fill="#111827">137</text>
<line x1="1044.56" y1="371.00" x2="1044.56" y2="377.00" stroke="#6b7280" />
<text x="1044.56" y="395.00" text-anchor="end" transform="rotate(-45 1044.56 395.00)" font-size="11" fill="#374151">7/1 06:31</text>

<rect x="1073.60" y="119.83" width="42.08" height="251.17" fill="#b91c1c" rx="2">
<title>hard-knownfail: 137/150 failures at 7/1 06:45; commit 5028160</title>
</rect>
<text x="1094.64" y="112.83" text-anchor="middle" font-size="11" fill="#111827">137</text>
<line x1="1094.64" y1="371.00" x2="1094.64" y2="377.00" stroke="#6b7280" />
<text x="1094.64" y="395.00" text-anchor="end" transform="rotate(-45 1094.64 395.00)" font-size="11" fill="#374151">7/1 06:45</text>

<rect x="1123.68" y="119.83" width="42.08" height="251.17" fill="#b91c1c" rx="2">
<title>hard-knownfail: 137/150 failures at 7/1 07:11; commit 37d448d</title>
</rect>
<text x="1144.72" y="112.83" text-anchor="middle" font-size="11" fill="#111827">137</text>
<line x1="1144.72" y1="371.00" x2="1144.72" y2="377.00" stroke="#6b7280" />
<text x="1144.72" y="395.00" text-anchor="end" transform="rotate(-45 1144.72 395.00)" font-size="11" fill="#374151">7/1 07:11</text>

<rect x="1173.76" y="119.83" width="42.08" height="251.17" fill="#b91c1c" rx="2">
<title>hard-knownfail: 137/150 failures at 7/1 07:28; commit 37d448d</title>
</rect>
<text x="1194.80" y="112.83" text-anchor="middle" font-size="11" fill="#111827">137</text>
<line x1="1194.80" y1="371.00" x2="1194.80" y2="377.00" stroke="#6b7280" />
<text x="1194.80" y="395.00" text-anchor="end" transform="rotate(-45 1194.80 395.00)" font-size="11" fill="#374151">7/1 07:28</text>

<rect x="1223.84" y="119.83" width="42.08" height="251.17" fill="#b91c1c" rx="2">
<title>hard-knownfail: 137/150 failures at 7/1 07:30; commit 37d448d</title>
</rect>
<text x="1244.88" y="112.83" text-anchor="middle" font-size="11" fill="#111827">137</text>
<line x1="1244.88" y1="371.00" x2="1244.88" y2="377.00" stroke="#6b7280" />
<text x="1244.88" y="395.00" text-anchor="end" transform="rotate(-45 1244.88 395.00)" font-size="11" fill="#374151">7/1 07:30</text>

<rect x="1273.92" y="125.33" width="42.08" height="245.67" fill="#b91c1c" rx="2">
<title>hard-knownfail: 134/150 failures at 7/2 03:45; commit d1fd827</title>
</rect>
<text x="1294.96" y="118.33" text-anchor="middle" font-size="11" fill="#111827">134</text>
<line x1="1294.96" y1="371.00" x2="1294.96" y2="377.00" stroke="#6b7280" />
<text x="1294.96" y="395.00" text-anchor="end" transform="rotate(-45 1294.96 395.00)" font-size="11" fill="#374151">7/2 03:45</text>

<text x="72" y="435.00" font-size="18" font-weight="700" fill="#111827">Uber-plus-messy failures</text>
<text x="72" y="455.00" font-size="13" fill="#374151">Base 46/150; latest 0/150</text>
<line x1="72" y1="728.00" x2="1316" y2="728.00" stroke="#e5e7eb" />
<text x="60" y="732.00" text-anchor="end" font-size="12" fill="#374151">0</text>
<line x1="72" y1="673.00" x2="1316" y2="673.00" stroke="#e5e7eb" />
<text x="60" y="677.00" text-anchor="end" font-size="12" fill="#374151">30</text>
<line x1="72" y1="618.00" x2="1316" y2="618.00" stroke="#e5e7eb" />
<text x="60" y="622.00" text-anchor="end" font-size="12" fill="#374151">60</text>
<line x1="72" y1="563.00" x2="1316" y2="563.00" stroke="#e5e7eb" />
<text x="60" y="567.00" text-anchor="end" font-size="12" fill="#374151">90</text>
<line x1="72" y1="508.00" x2="1316" y2="508.00" stroke="#e5e7eb" />
<text x="60" y="512.00" text-anchor="end" font-size="12" fill="#374151">120</text>
<line x1="72" y1="453.00" x2="1316" y2="453.00" stroke="#e5e7eb" />
<text x="60" y="457.00" text-anchor="end" font-size="12" fill="#374151">150</text>
<line x1="72" y1="728.00" x2="1316" y2="728.00" stroke="#111827" />
<line x1="72" y1="453.00" x2="72" y2="728.00" stroke="#111827" />
<rect x="72.00" y="643.67" width="42.08" height="84.33" fill="#2563eb" rx="2">
<title>uber-plus-messy: 46/150 failures at 6/30 23:35; commit b6e8906</title>
</rect>
<text x="93.04" y="636.67" text-anchor="middle" font-size="11" fill="#111827">46</text>
<line x1="93.04" y1="728.00" x2="93.04" y2="734.00" stroke="#6b7280" />
<text x="93.04" y="752.00" text-anchor="end" transform="rotate(-45 93.04 752.00)" font-size="11" fill="#374151">6/30 23:35</text>
<text x="93.04" y="802.00" text-anchor="middle" font-size="11" font-weight="700" fill="#111827">BASE</text>
<rect x="122.08" y="643.67" width="42.08" height="84.33" fill="#2563eb" rx="2">
<title>uber-plus-messy: 46/150 failures at 6/30 23:37; commit b6e8906</title>
</rect>
<text x="143.12" y="636.67" text-anchor="middle" font-size="11" fill="#111827">46</text>
<line x1="143.12" y1="728.00" x2="143.12" y2="734.00" stroke="#6b7280" />
<text x="143.12" y="752.00" text-anchor="end" transform="rotate(-45 143.12 752.00)" font-size="11" fill="#374151">6/30 23:37</text>

<rect x="172.16" y="643.67" width="42.08" height="84.33" fill="#2563eb" rx="2">
<title>uber-plus-messy: 46/150 failures at 6/30 23:54; commit eb2a795</title>
</rect>
<text x="193.20" y="636.67" text-anchor="middle" font-size="11" fill="#111827">46</text>
<line x1="193.20" y1="728.00" x2="193.20" y2="734.00" stroke="#6b7280" />
<text x="193.20" y="752.00" text-anchor="end" transform="rotate(-45 193.20 752.00)" font-size="11" fill="#374151">6/30 23:54</text>

<rect x="222.24" y="643.67" width="42.08" height="84.33" fill="#2563eb" rx="2">
<title>uber-plus-messy: 46/150 failures at 6/30 23:59; commit 0f4220b</title>
</rect>
<text x="243.28" y="636.67" text-anchor="middle" font-size="11" fill="#111827">46</text>
<line x1="243.28" y1="728.00" x2="243.28" y2="734.00" stroke="#6b7280" />
<text x="243.28" y="752.00" text-anchor="end" transform="rotate(-45 243.28 752.00)" font-size="11" fill="#374151">6/30 23:59</text>

<rect x="272.32" y="643.67" width="42.08" height="84.33" fill="#2563eb" rx="2">
<title>uber-plus-messy: 46/150 failures at 7/1 00:13; commit 1d47689</title>
</rect>
<text x="293.36" y="636.67" text-anchor="middle" font-size="11" fill="#111827">46</text>
<line x1="293.36" y1="728.00" x2="293.36" y2="734.00" stroke="#6b7280" />
<text x="293.36" y="752.00" text-anchor="end" transform="rotate(-45 293.36 752.00)" font-size="11" fill="#374151">7/1 00:13</text>

<rect x="322.40" y="643.67" width="42.08" height="84.33" fill="#2563eb" rx="2">
<title>uber-plus-messy: 46/150 failures at 7/1 00:21; commit 1d47689</title>
</rect>
<text x="343.44" y="636.67" text-anchor="middle" font-size="11" fill="#111827">46</text>
<line x1="343.44" y1="728.00" x2="343.44" y2="734.00" stroke="#6b7280" />
<text x="343.44" y="752.00" text-anchor="end" transform="rotate(-45 343.44 752.00)" font-size="11" fill="#374151">7/1 00:21</text>

<rect x="372.48" y="665.67" width="42.08" height="62.33" fill="#2563eb" rx="2">
<title>uber-plus-messy: 34/150 failures at 7/1 00:37; commit 1d47689</title>
</rect>
<text x="393.52" y="658.67" text-anchor="middle" font-size="11" fill="#111827">34</text>
<line x1="393.52" y1="728.00" x2="393.52" y2="734.00" stroke="#6b7280" />
<text x="393.52" y="752.00" text-anchor="end" transform="rotate(-45 393.52 752.00)" font-size="11" fill="#374151">7/1 00:37</text>

<rect x="422.56" y="700.50" width="42.08" height="27.50" fill="#2563eb" rx="2">
<title>uber-plus-messy: 15/150 failures at 7/1 00:39; commit 1d47689</title>
</rect>
<text x="443.60" y="693.50" text-anchor="middle" font-size="11" fill="#111827">15</text>
<line x1="443.60" y1="728.00" x2="443.60" y2="734.00" stroke="#6b7280" />
<text x="443.60" y="752.00" text-anchor="end" transform="rotate(-45 443.60 752.00)" font-size="11" fill="#374151">7/1 00:39</text>

<rect x="472.64" y="704.17" width="42.08" height="23.83" fill="#2563eb" rx="2">
<title>uber-plus-messy: 13/150 failures at 7/1 00:40; commit 1d47689</title>
</rect>
<text x="493.68" y="697.17" text-anchor="middle" font-size="11" fill="#111827">13</text>
<line x1="493.68" y1="728.00" x2="493.68" y2="734.00" stroke="#6b7280" />
<text x="493.68" y="752.00" text-anchor="end" transform="rotate(-45 493.68 752.00)" font-size="11" fill="#374151">7/1 00:40</text>

<rect x="522.72" y="707.83" width="42.08" height="20.17" fill="#2563eb" rx="2">
<title>uber-plus-messy: 11/150 failures at 7/1 03:54; commit 1618d04</title>
</rect>
<text x="543.76" y="700.83" text-anchor="middle" font-size="11" fill="#111827">11</text>
<line x1="543.76" y1="728.00" x2="543.76" y2="734.00" stroke="#6b7280" />
<text x="543.76" y="752.00" text-anchor="end" transform="rotate(-45 543.76 752.00)" font-size="11" fill="#374151">7/1 03:54</text>

<rect x="572.80" y="726.17" width="42.08" height="1.83" fill="#2563eb" rx="2">
<title>uber-plus-messy: 1/150 failures at 7/1 04:09; commit 08cb995</title>
</rect>
<text x="593.84" y="719.17" text-anchor="middle" font-size="11" fill="#111827">1</text>
<line x1="593.84" y1="728.00" x2="593.84" y2="734.00" stroke="#6b7280" />
<text x="593.84" y="752.00" text-anchor="end" transform="rotate(-45 593.84 752.00)" font-size="11" fill="#374151">7/1 04:09</text>

<rect x="622.88" y="728.00" width="42.08" height="0.00" fill="#2563eb" rx="2">
<title>uber-plus-messy: 0/150 failures at 7/1 04:12; commit 1ca9a1a</title>
</rect>
<text x="643.92" y="721.00" text-anchor="middle" font-size="11" fill="#111827">0</text>
<line x1="643.92" y1="728.00" x2="643.92" y2="734.00" stroke="#6b7280" />
<text x="643.92" y="752.00" text-anchor="end" transform="rotate(-45 643.92 752.00)" font-size="11" fill="#374151">7/1 04:12</text>

<rect x="672.96" y="728.00" width="42.08" height="0.00" fill="#2563eb" rx="2">
<title>uber-plus-messy: 0/150 failures at 7/1 04:37; commit c3137d8</title>
</rect>
<text x="694.00" y="721.00" text-anchor="middle" font-size="11" fill="#111827">0</text>
<line x1="694.00" y1="728.00" x2="694.00" y2="734.00" stroke="#6b7280" />
<text x="694.00" y="752.00" text-anchor="end" transform="rotate(-45 694.00 752.00)" font-size="11" fill="#374151">7/1 04:37</text>

<rect x="723.04" y="728.00" width="42.08" height="0.00" fill="#2563eb" rx="2">
<title>uber-plus-messy: 0/150 failures at 7/1 04:49; commit 7a55092</title>
</rect>
<text x="744.08" y="721.00" text-anchor="middle" font-size="11" fill="#111827">0</text>
<line x1="744.08" y1="728.00" x2="744.08" y2="734.00" stroke="#6b7280" />
<text x="744.08" y="752.00" text-anchor="end" transform="rotate(-45 744.08 752.00)" font-size="11" fill="#374151">7/1 04:49</text>

<rect x="773.12" y="728.00" width="42.08" height="0.00" fill="#2563eb" rx="2">
<title>uber-plus-messy: 0/150 failures at 7/1 05:25; commit b5313e4</title>
</rect>
<text x="794.16" y="721.00" text-anchor="middle" font-size="11" fill="#111827">0</text>
<line x1="794.16" y1="728.00" x2="794.16" y2="734.00" stroke="#6b7280" />
<text x="794.16" y="752.00" text-anchor="end" transform="rotate(-45 794.16 752.00)" font-size="11" fill="#374151">7/1 05:25</text>

<rect x="823.20" y="728.00" width="42.08" height="0.00" fill="#2563eb" rx="2">
<title>uber-plus-messy: 0/150 failures at 7/1 05:35; commit 97e76ef</title>
</rect>
<text x="844.24" y="721.00" text-anchor="middle" font-size="11" fill="#111827">0</text>
<line x1="844.24" y1="728.00" x2="844.24" y2="734.00" stroke="#6b7280" />
<text x="844.24" y="752.00" text-anchor="end" transform="rotate(-45 844.24 752.00)" font-size="11" fill="#374151">7/1 05:35</text>

<rect x="873.28" y="728.00" width="42.08" height="0.00" fill="#2563eb" rx="2">
<title>uber-plus-messy: 0/150 failures at 7/1 05:53; commit 97e76ef</title>
</rect>
<text x="894.32" y="721.00" text-anchor="middle" font-size="11" fill="#111827">0</text>
<line x1="894.32" y1="728.00" x2="894.32" y2="734.00" stroke="#6b7280" />
<text x="894.32" y="752.00" text-anchor="end" transform="rotate(-45 894.32 752.00)" font-size="11" fill="#374151">7/1 05:53</text>

<rect x="923.36" y="728.00" width="42.08" height="0.00" fill="#2563eb" rx="2">
<title>uber-plus-messy: 0/150 failures at 7/1 06:14; commit 882fb70</title>
</rect>
<text x="944.40" y="721.00" text-anchor="middle" font-size="11" fill="#111827">0</text>
<line x1="944.40" y1="728.00" x2="944.40" y2="734.00" stroke="#6b7280" />
<text x="944.40" y="752.00" text-anchor="end" transform="rotate(-45 944.40 752.00)" font-size="11" fill="#374151">7/1 06:14</text>

<rect x="973.44" y="728.00" width="42.08" height="0.00" fill="#2563eb" rx="2">
<title>uber-plus-messy: 0/150 failures at 7/1 06:15; commit 882fb70</title>
</rect>
<text x="994.48" y="721.00" text-anchor="middle" font-size="11" fill="#111827">0</text>
<line x1="994.48" y1="728.00" x2="994.48" y2="734.00" stroke="#6b7280" />
<text x="994.48" y="752.00" text-anchor="end" transform="rotate(-45 994.48 752.00)" font-size="11" fill="#374151">7/1 06:15</text>

<rect x="1023.52" y="728.00" width="42.08" height="0.00" fill="#2563eb" rx="2">
<title>uber-plus-messy: 0/150 failures at 7/1 06:31; commit 2b28cd5</title>
</rect>
<text x="1044.56" y="721.00" text-anchor="middle" font-size="11" fill="#111827">0</text>
<line x1="1044.56" y1="728.00" x2="1044.56" y2="734.00" stroke="#6b7280" />
<text x="1044.56" y="752.00" text-anchor="end" transform="rotate(-45 1044.56 752.00)" font-size="11" fill="#374151">7/1 06:31</text>

<rect x="1073.60" y="728.00" width="42.08" height="0.00" fill="#2563eb" rx="2">
<title>uber-plus-messy: 0/150 failures at 7/1 06:45; commit 5028160</title>
</rect>
<text x="1094.64" y="721.00" text-anchor="middle" font-size="11" fill="#111827">0</text>
<line x1="1094.64" y1="728.00" x2="1094.64" y2="734.00" stroke="#6b7280" />
<text x="1094.64" y="752.00" text-anchor="end" transform="rotate(-45 1094.64 752.00)" font-size="11" fill="#374151">7/1 06:45</text>

<rect x="1123.68" y="728.00" width="42.08" height="0.00" fill="#2563eb" rx="2">
<title>uber-plus-messy: 0/150 failures at 7/1 07:11; commit 37d448d</title>
</rect>
<text x="1144.72" y="721.00" text-anchor="middle" font-size="11" fill="#111827">0</text>
<line x1="1144.72" y1="728.00" x2="1144.72" y2="734.00" stroke="#6b7280" />
<text x="1144.72" y="752.00" text-anchor="end" transform="rotate(-45 1144.72 752.00)" font-size="11" fill="#374151">7/1 07:11</text>

<rect x="1173.76" y="728.00" width="42.08" height="0.00" fill="#2563eb" rx="2">
<title>uber-plus-messy: 0/150 failures at 7/1 07:28; commit 37d448d</title>
</rect>
<text x="1194.80" y="721.00" text-anchor="middle" font-size="11" fill="#111827">0</text>
<line x1="1194.80" y1="728.00" x2="1194.80" y2="734.00" stroke="#6b7280" />
<text x="1194.80" y="752.00" text-anchor="end" transform="rotate(-45 1194.80 752.00)" font-size="11" fill="#374151">7/1 07:28</text>

<rect x="1223.84" y="728.00" width="42.08" height="0.00" fill="#2563eb" rx="2">
<title>uber-plus-messy: 0/150 failures at 7/1 07:30; commit 37d448d</title>
</rect>
<text x="1244.88" y="721.00" text-anchor="middle" font-size="11" fill="#111827">0</text>
<line x1="1244.88" y1="728.00" x2="1244.88" y2="734.00" stroke="#6b7280" />
<text x="1244.88" y="752.00" text-anchor="end" transform="rotate(-45 1244.88 752.00)" font-size="11" fill="#374151">7/1 07:30</text>

<rect x="1273.92" y="728.00" width="42.08" height="0.00" fill="#2563eb" rx="2">
<title>uber-plus-messy: 0/150 failures at 7/2 03:45; commit d1fd827</title>
</rect>
<text x="1294.96" y="721.00" text-anchor="middle" font-size="11" fill="#111827">0</text>
<line x1="1294.96" y1="728.00" x2="1294.96" y2="734.00" stroke="#6b7280" />
<text x="1294.96" y="752.00" text-anchor="end" transform="rotate(-45 1294.96 752.00)" font-size="11" fill="#374151">7/2 03:45</text>

  <text x="24" y="233.5" text-anchor="middle" transform="rotate(-90 24 233.5)" font-size="13" font-weight="700" fill="#111827">Failures</text>
  <text x="24" y="590.5" text-anchor="middle" transform="rotate(-90 24 590.5)" font-size="13" font-weight="700" fill="#111827">Failures</text>
</svg>
