<?xml version="1.0" encoding="UTF-8"?>
<svg xmlns="http://www.w3.org/2000/svg" width="1160" height="680" viewBox="0 0 1160 680" role="img" aria-labelledby="title desc">
  <title id="title">Alpha metrics hardest categories since base</title>
  <desc id="desc">Line chart of failure rate over time for hard-knownfail 94.67%; uber-plus-messy 30.67%. Base is June 30, 2026 at 7:35:40 PM EDT.</desc>
  <rect width="100%" height="100%" fill="#ffffff" />
  <text x="82" y="38" font-size="22" font-weight="700" fill="#111827">Alpha metrics: two hardest base categories since base</text>
  <text x="82" y="62" font-size="13" fill="#374151">Base = first data point in reports/alpha-metrics-history.jsonl: June 30, 2026 at 7:35:40 PM EDT</text>
  <text x="82" y="82" font-size="13" fill="#374151">Latest plotted point: July 1, 2026 at 11:45:21 PM EDT. Y-axis is failure rate; X-axis is Eastern date/time.</text>
  <line x1="82" y1="530" x2="1000" y2="530" stroke="#111827" />
  <line x1="82" y1="96" x2="82" y2="530" stroke="#111827" />
  <line x1="82" y1="530" x2="1000" y2="530" stroke="#e5e7eb" />
  <text x="70" y="534" text-anchor="end" font-size="12" fill="#374151">0%</text>
  <line x1="82" y1="443.2" x2="1000" y2="443.2" stroke="#e5e7eb" />
  <text x="70" y="447.2" text-anchor="end" font-size="12" fill="#374151">20%</text>
  <line x1="82" y1="356.4" x2="1000" y2="356.4" stroke="#e5e7eb" />
  <text x="70" y="360.4" text-anchor="end" font-size="12" fill="#374151">40%</text>
  <line x1="82" y1="269.6" x2="1000" y2="269.6" stroke="#e5e7eb" />
  <text x="70" y="273.6" text-anchor="end" font-size="12" fill="#374151">60%</text>
  <line x1="82" y1="182.79999999999995" x2="1000" y2="182.79999999999995" stroke="#e5e7eb" />
  <text x="70" y="186.79999999999995" text-anchor="end" font-size="12" fill="#374151">80%</text>
  <line x1="82" y1="96" x2="1000" y2="96" stroke="#e5e7eb" />
  <text x="70" y="100" text-anchor="end" font-size="12" fill="#374151">100%</text>
  <path d="M 82.00 119.13 L 83.22 119.13 L 92.22 119.13 L 95.08 119.13 L 102.71 119.13 L 106.80 119.13 L 115.74 130.72 L 116.74 130.72 L 117.37 130.72 L 222.63 133.63 L 230.70 133.63 L 232.38 133.63 L 246.08 133.63 L 252.62 133.63 L 271.85 133.63 L 277.68 133.63 L 287.07 133.63 L 298.90 133.63 L 299.46 133.63 L 307.78 133.63 L 315.31 133.63 L 329.75 133.63 L 339.07 133.63 L 340.18 133.63 L 1000.00 142.31" fill="none" stroke="#b91c1c" stroke-width="3" stroke-linejoin="round" stroke-linecap="round" />
<circle cx="82.00" cy="119.13" r="4.5" fill="#b91c1c"><title>hard-knownfail: 94.67% (142/150) at June 30, 2026 at 7:35:40 PM EDT; commit b6e8906</title></circle>
<circle cx="83.22" cy="119.13" r="4.5" fill="#b91c1c"><title>hard-knownfail: 94.67% (142/150) at June 30, 2026 at 7:37:55 PM EDT; commit b6e8906</title></circle>
<circle cx="92.22" cy="119.13" r="4.5" fill="#b91c1c"><title>hard-knownfail: 94.67% (142/150) at 06/30/2026, 7:54:29 PM EDT; commit eb2a795</title></circle>
<circle cx="95.08" cy="119.13" r="4.5" fill="#b91c1c"><title>hard-knownfail: 94.67% (142/150) at 06/30/2026, 7:59:45 PM EDT; commit 0f4220b</title></circle>
<circle cx="102.71" cy="119.13" r="4.5" fill="#b91c1c"><title>hard-knownfail: 94.67% (142/150) at 06/30/2026, 8:13:47 PM EDT; commit 1d47689</title></circle>
<circle cx="106.80" cy="119.13" r="4.5" fill="#b91c1c"><title>hard-knownfail: 94.67% (142/150) at 06/30/2026, 8:21:18 PM EDT; commit 1d47689</title></circle>
<circle cx="115.74" cy="130.72" r="4.5" fill="#b91c1c"><title>hard-knownfail: 92.00% (138/150) at 06/30/2026, 8:37:47 PM EDT; commit 1d47689</title></circle>
<circle cx="116.74" cy="130.72" r="4.5" fill="#b91c1c"><title>hard-knownfail: 92.00% (138/150) at 06/30/2026, 8:39:37 PM EDT; commit 1d47689</title></circle>
<circle cx="117.37" cy="130.72" r="4.5" fill="#b91c1c"><title>hard-knownfail: 92.00% (138/150) at 06/30/2026, 8:40:46 PM EDT; commit 1d47689</title></circle>
<circle cx="222.63" cy="133.63" r="4.5" fill="#b91c1c"><title>hard-knownfail: 91.33% (137/150) at 06/30/2026, 11:54:31 PM EDT; commit 1618d04</title></circle>
<circle cx="230.70" cy="133.63" r="4.5" fill="#b91c1c"><title>hard-knownfail: 91.33% (137/150) at 07/01/2026, 12:09:22 AM EDT; commit 08cb995</title></circle>
<circle cx="232.38" cy="133.63" r="4.5" fill="#b91c1c"><title>hard-knownfail: 91.33% (137/150) at 07/01/2026, 12:12:28 AM EDT; commit 1ca9a1a</title></circle>
<circle cx="246.08" cy="133.63" r="4.5" fill="#b91c1c"><title>hard-knownfail: 91.33% (137/150) at 07/01/2026, 12:37:41 AM EDT; commit c3137d8</title></circle>
<circle cx="252.62" cy="133.63" r="4.5" fill="#b91c1c"><title>hard-knownfail: 91.33% (137/150) at 07/01/2026, 12:49:43 AM EDT; commit 7a55092</title></circle>
<circle cx="271.85" cy="133.63" r="4.5" fill="#b91c1c"><title>hard-knownfail: 91.33% (137/150) at 07/01/2026, 1:25:07 AM EDT; commit b5313e4</title></circle>
<circle cx="277.68" cy="133.63" r="4.5" fill="#b91c1c"><title>hard-knownfail: 91.33% (137/150) at 07/01/2026, 1:35:50 AM EDT; commit 97e76ef</title></circle>
<circle cx="287.07" cy="133.63" r="4.5" fill="#b91c1c"><title>hard-knownfail: 91.33% (137/150) at 07/01/2026, 1:53:08 AM EDT; commit 97e76ef</title></circle>
<circle cx="298.90" cy="133.63" r="4.5" fill="#b91c1c"><title>hard-knownfail: 91.33% (137/150) at 07/01/2026, 2:14:54 AM EDT; commit 882fb70</title></circle>
<circle cx="299.46" cy="133.63" r="4.5" fill="#b91c1c"><title>hard-knownfail: 91.33% (137/150) at 07/01/2026, 2:15:56 AM EDT; commit 882fb70</title></circle>
<circle cx="307.78" cy="133.63" r="4.5" fill="#b91c1c"><title>hard-knownfail: 91.33% (137/150) at 07/01/2026, 2:31:15 AM EDT; commit 2b28cd5</title></circle>
<circle cx="315.31" cy="133.63" r="4.5" fill="#b91c1c"><title>hard-knownfail: 91.33% (137/150) at 07/01/2026, 2:45:06 AM EDT; commit 5028160</title></circle>
<circle cx="329.75" cy="133.63" r="4.5" fill="#b91c1c"><title>hard-knownfail: 91.33% (137/150) at 07/01/2026, 3:11:41 AM EDT; commit 37d448d</title></circle>
<circle cx="339.07" cy="133.63" r="4.5" fill="#b91c1c"><title>hard-knownfail: 91.33% (137/150) at 07/01/2026, 3:28:50 AM EDT; commit 37d448d</title></circle>
<circle cx="340.18" cy="133.63" r="4.5" fill="#b91c1c"><title>hard-knownfail: 91.33% (137/150) at 07/01/2026, 3:30:53 AM EDT; commit 37d448d</title></circle>
<circle cx="1000.00" cy="142.31" r="4.5" fill="#b91c1c"><title>hard-knownfail: 89.33% (134/150) at 07/01/2026, 11:45:21 PM EDT; commit d1fd827</title></circle>
<path d="M 82.00 396.89 L 83.22 396.89 L 92.22 396.89 L 95.08 396.89 L 102.71 396.89 L 106.80 396.89 L 115.74 431.61 L 116.74 486.60 L 117.37 492.37 L 222.63 498.19 L 230.70 527.09 L 232.38 530.00 L 246.08 530.00 L 252.62 530.00 L 271.85 530.00 L 277.68 530.00 L 287.07 530.00 L 298.90 530.00 L 299.46 530.00 L 307.78 530.00 L 315.31 530.00 L 329.75 530.00 L 339.07 530.00 L 340.18 530.00 L 1000.00 530.00" fill="none" stroke="#2563eb" stroke-width="3" stroke-linejoin="round" stroke-linecap="round" />
<circle cx="82.00" cy="396.89" r="4.5" fill="#2563eb"><title>uber-plus-messy: 30.67% (46/150) at June 30, 2026 at 7:35:40 PM EDT; commit b6e8906</title></circle>
<circle cx="83.22" cy="396.89" r="4.5" fill="#2563eb"><title>uber-plus-messy: 30.67% (46/150) at June 30, 2026 at 7:37:55 PM EDT; commit b6e8906</title></circle>
<circle cx="92.22" cy="396.89" r="4.5" fill="#2563eb"><title>uber-plus-messy: 30.67% (46/150) at 06/30/2026, 7:54:29 PM EDT; commit eb2a795</title></circle>
<circle cx="95.08" cy="396.89" r="4.5" fill="#2563eb"><title>uber-plus-messy: 30.67% (46/150) at 06/30/2026, 7:59:45 PM EDT; commit 0f4220b</title></circle>
<circle cx="102.71" cy="396.89" r="4.5" fill="#2563eb"><title>uber-plus-messy: 30.67% (46/150) at 06/30/2026, 8:13:47 PM EDT; commit 1d47689</title></circle>
<circle cx="106.80" cy="396.89" r="4.5" fill="#2563eb"><title>uber-plus-messy: 30.67% (46/150) at 06/30/2026, 8:21:18 PM EDT; commit 1d47689</title></circle>
<circle cx="115.74" cy="431.61" r="4.5" fill="#2563eb"><title>uber-plus-messy: 22.67% (34/150) at 06/30/2026, 8:37:47 PM EDT; commit 1d47689</title></circle>
<circle cx="116.74" cy="486.60" r="4.5" fill="#2563eb"><title>uber-plus-messy: 10.00% (15/150) at 06/30/2026, 8:39:37 PM EDT; commit 1d47689</title></circle>
<circle cx="117.37" cy="492.37" r="4.5" fill="#2563eb"><title>uber-plus-messy: 8.67% (13/150) at 06/30/2026, 8:40:46 PM EDT; commit 1d47689</title></circle>
<circle cx="222.63" cy="498.19" r="4.5" fill="#2563eb"><title>uber-plus-messy: 7.33% (11/150) at 06/30/2026, 11:54:31 PM EDT; commit 1618d04</title></circle>
<circle cx="230.70" cy="527.09" r="4.5" fill="#2563eb"><title>uber-plus-messy: 0.67% (1/150) at 07/01/2026, 12:09:22 AM EDT; commit 08cb995</title></circle>
<circle cx="232.38" cy="530.00" r="4.5" fill="#2563eb"><title>uber-plus-messy: 0.00% (0/150) at 07/01/2026, 12:12:28 AM EDT; commit 1ca9a1a</title></circle>
<circle cx="246.08" cy="530.00" r="4.5" fill="#2563eb"><title>uber-plus-messy: 0.00% (0/150) at 07/01/2026, 12:37:41 AM EDT; commit c3137d8</title></circle>
<circle cx="252.62" cy="530.00" r="4.5" fill="#2563eb"><title>uber-plus-messy: 0.00% (0/150) at 07/01/2026, 12:49:43 AM EDT; commit 7a55092</title></circle>
<circle cx="271.85" cy="530.00" r="4.5" fill="#2563eb"><title>uber-plus-messy: 0.00% (0/150) at 07/01/2026, 1:25:07 AM EDT; commit b5313e4</title></circle>
<circle cx="277.68" cy="530.00" r="4.5" fill="#2563eb"><title>uber-plus-messy: 0.00% (0/150) at 07/01/2026, 1:35:50 AM EDT; commit 97e76ef</title></circle>
<circle cx="287.07" cy="530.00" r="4.5" fill="#2563eb"><title>uber-plus-messy: 0.00% (0/150) at 07/01/2026, 1:53:08 AM EDT; commit 97e76ef</title></circle>
<circle cx="298.90" cy="530.00" r="4.5" fill="#2563eb"><title>uber-plus-messy: 0.00% (0/150) at 07/01/2026, 2:14:54 AM EDT; commit 882fb70</title></circle>
<circle cx="299.46" cy="530.00" r="4.5" fill="#2563eb"><title>uber-plus-messy: 0.00% (0/150) at 07/01/2026, 2:15:56 AM EDT; commit 882fb70</title></circle>
<circle cx="307.78" cy="530.00" r="4.5" fill="#2563eb"><title>uber-plus-messy: 0.00% (0/150) at 07/01/2026, 2:31:15 AM EDT; commit 2b28cd5</title></circle>
<circle cx="315.31" cy="530.00" r="4.5" fill="#2563eb"><title>uber-plus-messy: 0.00% (0/150) at 07/01/2026, 2:45:06 AM EDT; commit 5028160</title></circle>
<circle cx="329.75" cy="530.00" r="4.5" fill="#2563eb"><title>uber-plus-messy: 0.00% (0/150) at 07/01/2026, 3:11:41 AM EDT; commit 37d448d</title></circle>
<circle cx="339.07" cy="530.00" r="4.5" fill="#2563eb"><title>uber-plus-messy: 0.00% (0/150) at 07/01/2026, 3:28:50 AM EDT; commit 37d448d</title></circle>
<circle cx="340.18" cy="530.00" r="4.5" fill="#2563eb"><title>uber-plus-messy: 0.00% (0/150) at 07/01/2026, 3:30:53 AM EDT; commit 37d448d</title></circle>
<circle cx="1000.00" cy="530.00" r="4.5" fill="#2563eb"><title>uber-plus-messy: 0.00% (0/150) at 07/01/2026, 11:45:21 PM EDT; commit d1fd827</title></circle>
  <line x1="82.00" y1="530" x2="82.00" y2="537" stroke="#6b7280" />
<text x="82.00" y="554" text-anchor="end" transform="rotate(-45 82.00 554)" font-size="11" fill="#374151">06/30 7:35 PM</text>
<text x="82.00" y="600" text-anchor="middle" font-size="11" font-weight="700" fill="#111827">BASE</text>
<line x1="83.22" y1="530" x2="83.22" y2="537" stroke="#6b7280" />
<text x="83.22" y="554" text-anchor="end" transform="rotate(-45 83.22 554)" font-size="11" fill="#374151">06/30 7:37 PM</text>

<line x1="92.22" y1="530" x2="92.22" y2="537" stroke="#6b7280" />
<text x="92.22" y="554" text-anchor="end" transform="rotate(-45 92.22 554)" font-size="11" fill="#374151">06/30 7:54 PM</text>

<line x1="95.08" y1="530" x2="95.08" y2="537" stroke="#6b7280" />
<text x="95.08" y="554" text-anchor="end" transform="rotate(-45 95.08 554)" font-size="11" fill="#374151">06/30 7:59 PM</text>

<line x1="102.71" y1="530" x2="102.71" y2="537" stroke="#6b7280" />
<text x="102.71" y="554" text-anchor="end" transform="rotate(-45 102.71 554)" font-size="11" fill="#374151">06/30 8:13 PM</text>

<line x1="106.80" y1="530" x2="106.80" y2="537" stroke="#6b7280" />
<text x="106.80" y="554" text-anchor="end" transform="rotate(-45 106.80 554)" font-size="11" fill="#374151">06/30 8:21 PM</text>

<line x1="115.74" y1="530" x2="115.74" y2="537" stroke="#6b7280" />
<text x="115.74" y="554" text-anchor="end" transform="rotate(-45 115.74 554)" font-size="11" fill="#374151">06/30 8:37 PM</text>

<line x1="116.74" y1="530" x2="116.74" y2="537" stroke="#6b7280" />
<text x="116.74" y="554" text-anchor="end" transform="rotate(-45 116.74 554)" font-size="11" fill="#374151">06/30 8:39 PM</text>

<line x1="117.37" y1="530" x2="117.37" y2="537" stroke="#6b7280" />
<text x="117.37" y="554" text-anchor="end" transform="rotate(-45 117.37 554)" font-size="11" fill="#374151">06/30 8:40 PM</text>

<line x1="222.63" y1="530" x2="222.63" y2="537" stroke="#6b7280" />
<text x="222.63" y="554" text-anchor="end" transform="rotate(-45 222.63 554)" font-size="11" fill="#374151">06/30 11:54 PM</text>

<line x1="230.70" y1="530" x2="230.70" y2="537" stroke="#6b7280" />
<text x="230.70" y="554" text-anchor="end" transform="rotate(-45 230.70 554)" font-size="11" fill="#374151">07/01 12:09 AM</text>

<line x1="232.38" y1="530" x2="232.38" y2="537" stroke="#6b7280" />
<text x="232.38" y="554" text-anchor="end" transform="rotate(-45 232.38 554)" font-size="11" fill="#374151">07/01 12:12 AM</text>

<line x1="246.08" y1="530" x2="246.08" y2="537" stroke="#6b7280" />
<text x="246.08" y="554" text-anchor="end" transform="rotate(-45 246.08 554)" font-size="11" fill="#374151">07/01 12:37 AM</text>

<line x1="252.62" y1="530" x2="252.62" y2="537" stroke="#6b7280" />
<text x="252.62" y="554" text-anchor="end" transform="rotate(-45 252.62 554)" font-size="11" fill="#374151">07/01 12:49 AM</text>

<line x1="271.85" y1="530" x2="271.85" y2="537" stroke="#6b7280" />
<text x="271.85" y="554" text-anchor="end" transform="rotate(-45 271.85 554)" font-size="11" fill="#374151">07/01 1:25 AM</text>

<line x1="277.68" y1="530" x2="277.68" y2="537" stroke="#6b7280" />
<text x="277.68" y="554" text-anchor="end" transform="rotate(-45 277.68 554)" font-size="11" fill="#374151">07/01 1:35 AM</text>

<line x1="287.07" y1="530" x2="287.07" y2="537" stroke="#6b7280" />
<text x="287.07" y="554" text-anchor="end" transform="rotate(-45 287.07 554)" font-size="11" fill="#374151">07/01 1:53 AM</text>

<line x1="298.90" y1="530" x2="298.90" y2="537" stroke="#6b7280" />
<text x="298.90" y="554" text-anchor="end" transform="rotate(-45 298.90 554)" font-size="11" fill="#374151">07/01 2:14 AM</text>

<line x1="299.46" y1="530" x2="299.46" y2="537" stroke="#6b7280" />
<text x="299.46" y="554" text-anchor="end" transform="rotate(-45 299.46 554)" font-size="11" fill="#374151">07/01 2:15 AM</text>

<line x1="307.78" y1="530" x2="307.78" y2="537" stroke="#6b7280" />
<text x="307.78" y="554" text-anchor="end" transform="rotate(-45 307.78 554)" font-size="11" fill="#374151">07/01 2:31 AM</text>

<line x1="315.31" y1="530" x2="315.31" y2="537" stroke="#6b7280" />
<text x="315.31" y="554" text-anchor="end" transform="rotate(-45 315.31 554)" font-size="11" fill="#374151">07/01 2:45 AM</text>

<line x1="329.75" y1="530" x2="329.75" y2="537" stroke="#6b7280" />
<text x="329.75" y="554" text-anchor="end" transform="rotate(-45 329.75 554)" font-size="11" fill="#374151">07/01 3:11 AM</text>

<line x1="339.07" y1="530" x2="339.07" y2="537" stroke="#6b7280" />
<text x="339.07" y="554" text-anchor="end" transform="rotate(-45 339.07 554)" font-size="11" fill="#374151">07/01 3:28 AM</text>

<line x1="340.18" y1="530" x2="340.18" y2="537" stroke="#6b7280" />
<text x="340.18" y="554" text-anchor="end" transform="rotate(-45 340.18 554)" font-size="11" fill="#374151">07/01 3:30 AM</text>

<line x1="1000.00" y1="530" x2="1000.00" y2="537" stroke="#6b7280" />
<text x="1000.00" y="554" text-anchor="end" transform="rotate(-45 1000.00 554)" font-size="11" fill="#374151">07/01 11:45 PM</text>

  <rect x="1024" y="102" width="14" height="14" fill="#b91c1c" />
<text x="1046" y="114" font-size="13" font-weight="700" fill="#111827">hard-knownfail</text>
<text x="1046" y="132" font-size="12" fill="#374151">94.67% -> 89.33%</text>
<text x="1046" y="148" font-size="12" fill="#374151">142/150 -> 134/150</text>
<rect x="1024" y="154" width="14" height="14" fill="#2563eb" />
<text x="1046" y="166" font-size="13" font-weight="700" fill="#111827">uber-plus-messy</text>
<text x="1046" y="184" font-size="12" fill="#374151">30.67% -> 0.00%</text>
<text x="1046" y="200" font-size="12" fill="#374151">46/150 -> 0/150</text>
  <text x="24" y="313" text-anchor="middle" transform="rotate(-90 24 313)" font-size="13" font-weight="700" fill="#111827">Failure rate</text>
  <text x="541" y="662" text-anchor="middle" font-size="13" font-weight="700" fill="#111827">Date/time (Eastern)</text>
</svg>
